<svg xmlns="http://www.w3.org/2000/svg" height="40px" viewBox="0 -960 960 960" width="40px" fill="#e3e3e3"><path d="M107.67-433.82 80-453.74l167.9-270 116.66 137.33 154.11-250.72 116.66 175.8 137-218.67 25.98 20.03-162.67 259.94-115.67-174.12-150.25 244.84-117.26-136.9-144.79 232.39ZM565.6-233.85q50.09 0 84.94-34.7 34.84-34.7 34.84-84.79 0-50.25-34.78-85.02-34.78-34.77-85.02-34.77-50.09 0-84.79 35.12-34.69 35.11-34.69 84.69 0 50.09 34.71 84.78 34.7 34.69 84.79 34.69ZM774.97-120 661.23-233.74q-19.61 15.69-43.76 24.71-24.14 9.03-51.88 9.03-64.12 0-108.72-44.57-44.61-44.57-44.61-108.63 0-63.54 44.57-108.66 44.57-45.11 108.62-45.11 64.22 0 109 44.94t44.78 108.7q0 27.74-9.02 52.27-9.03 24.52-24.88 44.14l112.98 113.59L774.97-120Z"/></svg>