<?xml version="1.0" encoding="UTF-8"?>
<svg xmlns="http://www.w3.org/2000/svg" height="40px" viewBox="0 0 599 599" width="40px" fill="#e3e3e3">
  <defs>
    <style>
      .cls-1 {
        fill: #fff;
      }
    </style>
  </defs>
  <path class="cls-1" d="M84.25,454.1c0-.6,1.4-3.41,3.11-6.31,1.8-2.91,8.42-14.33,14.73-25.36,12.33-21.35,31.47-54.52,36.78-63.64,3.11-5.41,15.23-26.26,22.45-38.89,2-3.41,8.62-14.83,14.63-25.26,12.93-22.45,15.64-27.06,26.06-45.1,4.31-7.42,9.22-16.04,11.02-19.04,5.11-8.72,24.96-43.3,37.58-65.35,6.31-11.02,11.93-20.15,12.43-20.15.6.1,2.81,3.21,4.91,6.92,2.2,3.81,5.61,9.62,7.52,12.93,3.21,5.61,5.91,10.12,14.93,26.06,1.9,3.31,5.21,8.92,7.32,12.53s5.41,9.22,7.32,12.53c11.43,20.05,11.73,20.55,22.45,38.89,2,3.41,5.41,9.52,7.62,13.53,2.2,3.91,4.61,7.22,5.31,7.22,1.9,0,33.98-15.64,49.71-24.05,7.32-4.01,14.03-7.72,14.83-8.12,29.77-16.04,74.47-44.3,97.42-61.64,5.51-4.21,10.12-7.42,10.32-7.22.5.5-4.11,17.84-6.51,24.25-1,2.81-2.81,7.72-4.01,11.02-5.61,15.43-15.54,31.87-26.06,43.1-15.54,16.54-36.08,27.26-72.16,37.69-39.89,11.53-56.53,16.54-78.68,23.65-9.32,3.01-20.45,6.82-24.56,8.42-4.11,1.5-11.33,4.21-16.04,6.01-4.71,1.7-9.42,3.51-10.52,4.01s-6.51,2.71-12.03,5.01c-22.05,9.02-51.22,23.75-72.16,36.48-34.08,20.55-65.35,49.61-79.78,74.17l-3.51,6.11-11.23.3c-6.92.2-11.23-.1-11.23-.7h.03ZM226.77,329.82c15.33-9.02,36.38-19.44,58.93-29.17,4.11-1.8,7.92-3.61,8.42-4.01.4-.5-.7-3.51-2.61-6.72-2-3.21-5.41-9.22-7.82-13.33-6.11-10.72-10.02-17.54-14.83-25.66-2.31-3.81-4.81-7.92-5.07-8.44-1.38-2.81-1.24-.08-7.76,11.17-3.81,6.61-8.82,15.33-11.13,19.24-2.31,4.01-9.12,15.64-15.03,26.06-5.91,10.32-12.23,21.15-13.93,24.05-1.7,2.81-4.91,8.52-7.22,12.53l-4.21,7.32,4.01-2.31c2.1-1.3,10.32-6.11,18.24-10.72h0v-.02h0Z"/>
  <path class="cls-1" d="M116.32,454c0-1.3,5.91-9.62,13.53-19.04,18.64-23.15,46.1-44.3,78.68-60.64,8.22-4.11,17.34-8.42,20.25-9.62,2.91-1.1,7.62-3.01,10.32-4.11,20.55-8.12,67.35-23.75,105.74-35.28,35.98-10.72,97.42-26.96,99.83-26.46,2,.5-11.53,16.84-26.16,31.57-18.04,18.24-19.74,18.94-66.65,27.26-25.76,4.61-30.57,5.61-52.12,10.62-34.98,8.22-80.98,21.95-93.61,27.96-2.81,1.3-6.92,3.21-9.12,4.21-7.82,3.31-22.65,12.63-32.07,20.15-10.72,8.42-12.23,11.02-2.2,3.91,7.52-5.41,30.07-16.44,40.79-20.05,4.11-1.4,10.72-3.71,14.53-5.11,9.52-3.51,39.09-10.92,56.13-14.03,19.34-3.61,55.63-7.12,55.63-5.51,0,.9-14.63,13.13-19.54,16.34-6.11,4.01-11.93,5.41-38.79,9.22-50.81,7.32-70.76,11.13-85.29,16.24-18.14,6.31-34.28,16.04-45.8,27.76l-5.41,5.61h-9.32c-5.51,0-9.32-.4-9.32-1h-.03Z"/>
  <path class="cls-1" d="M386.43,452.49c-.8-1.4-2.31-3.71-3.21-5.21-.9-1.6-3.51-5.91-5.61-9.82-3.81-6.61-6.72-11.83-15.84-27.76-2.2-3.81-5.61-9.82-7.72-13.53-2.2-3.81-5.51-9.72-7.52-13.13-2.1-3.51-3.71-6.72-3.71-7.22,0-.4,5.31-1,11.83-1.4,6.41-.4,18.24-1.4,26.16-2.2,7.92-.8,14.73-1.2,15.13-.7.5.4,2.91,4.61,5.61,9.32,2.61,4.71,6.51,11.73,8.72,15.54,2.1,3.91,5.81,10.42,8.22,14.53s5.61,9.82,7.12,12.53c1.4,2.81,4.11,7.52,5.91,10.52,9.52,16.24,11.53,19.74,11.53,20.35,0,.4-12.43.7-27.56.7h-27.56l-1.5-2.51h0Z"/>
</svg>